<svg width="42" height="48" viewBox="0 0 42 48" fill="none" xmlns="http://www.w3.org/2000/svg">
<g clip-path="url(#clip0_31_29)">
<path d="M37.93 37.8701H3.25C1.46 37.8701 0 36.4101 0 34.6201C0 32.8301 1.46 31.3701 3.25 31.3701H37.93C39.72 31.3701 41.18 32.8301 41.18 34.6201C41.18 36.4101 39.72 37.8701 37.93 37.8701ZM3.25 32.7601C2.22 32.7601 1.38 33.6001 1.38 34.6301C1.38 35.6601 2.22 36.5001 3.25 36.5001H37.93C38.96 36.5001 39.8 35.6601 39.8 34.6301C39.8 33.6001 38.96 32.7601 37.93 32.7601H3.25Z" fill="#363436"/>
<path d="M37.1701 32.76H4.01007C3.63007 32.76 3.32007 32.45 3.32007 32.07C3.32007 22.55 11.0701 14.8 20.5901 14.8C30.1101 14.8 37.8601 22.55 37.8601 32.07C37.8601 32.45 37.5501 32.76 37.1701 32.76ZM4.71007 31.38H36.4601C36.1001 22.94 29.1201 16.18 20.5901 16.18C12.0601 16.18 5.08007 22.94 4.72007 31.38H4.71007Z" fill="#363436"/>
<path d="M11.2401 24.47C11.0901 24.47 10.9401 24.42 10.8201 24.32C10.5201 24.09 10.4601 23.65 10.7001 23.35C12.9501 20.46 16.6401 18.73 20.5901 18.73C20.9701 18.73 21.2801 19.04 21.2801 19.42C21.2801 19.8 20.9701 20.11 20.5901 20.11C17.0701 20.11 13.7801 21.64 11.7901 24.19C11.6501 24.37 11.4501 24.46 11.2401 24.46V24.47Z" fill="#363436"/>
<path d="M22.3901 16.2799C22.3901 16.2799 22.3401 16.2799 22.3201 16.2799C21.1501 16.1499 20.0401 16.1499 18.8701 16.2799C18.6801 16.2999 18.5001 16.2399 18.3501 16.1199C17.5301 15.4399 17.0701 14.4599 17.0701 13.4199C17.0701 11.4799 18.6501 9.8999 20.5901 9.8999C22.5301 9.8999 24.1101 11.4799 24.1101 13.4199C24.1101 14.4599 23.6401 15.4499 22.8301 16.1199C22.7101 16.2199 22.5501 16.2799 22.3901 16.2799ZM20.5901 11.2699C19.4101 11.2699 18.4501 12.2299 18.4501 13.4099C18.4501 13.9499 18.6601 14.4699 19.0401 14.8599C20.0901 14.7699 21.1001 14.7699 22.1501 14.8599C22.5201 14.4599 22.7401 13.9499 22.7401 13.4099C22.7401 12.2299 21.7801 11.2699 20.6001 11.2699H20.5901Z" fill="#363436"/>
<path d="M36.9101 29.8199H4.27008C3.89008 29.8199 3.58008 29.5099 3.58008 29.1299C3.58008 28.7499 3.89008 28.4399 4.27008 28.4399H36.9101C37.2901 28.4399 37.6001 28.7499 37.6001 29.1299C37.6001 29.5099 37.2901 29.8199 36.9101 29.8199Z" fill="#363436"/>
</g>
<defs>
<clipPath id="clip0_31_29">
<rect width="41.18" height="47.39" fill="white"/>
</clipPath>
</defs>
</svg>
