<svg width="149" height="62" viewBox="0 0 149 62" fill="none" xmlns="http://www.w3.org/2000/svg">
<mask id="mask0_144_1333" style="mask-type:luminance" maskUnits="userSpaceOnUse" x="0" y="0" width="62" height="62">
<path d="M61.082 0.901367H0V61.9834H61.082V0.901367Z" fill="white"/>
</mask>
<g mask="url(#mask0_144_1333)">
<path d="M30.2115 31.2769L40.0784 14.1948C39.6964 13.6986 36.1857 9.27383 30.1256 9.31523C24.1673 9.35653 20.7394 13.6763 20.3447 14.1948C23.6326 19.8889 26.9237 25.5829 30.2115 31.2769Z" stroke="#E9631A" stroke-width="2.76" stroke-linecap="round" stroke-linejoin="round"/>
<path d="M30.2114 31.2769H49.9482C50.1901 30.6979 52.2654 25.446 49.1971 20.2196C46.1829 15.0855 40.7244 14.2775 40.0782 14.1948C36.7904 19.8888 33.4993 25.5828 30.2114 31.2769Z" stroke="#E9631A" stroke-width="2.76" stroke-linecap="round" stroke-linejoin="round"/>
<path d="M30.2115 31.2769H10.4747C10.2328 30.6979 8.15757 25.446 11.2258 20.2196C14.24 15.0855 19.6986 14.2775 20.3447 14.1948C23.6326 19.8888 26.9236 25.5828 30.2115 31.2769Z" stroke="#E9631A" stroke-width="2.76" stroke-linecap="round" stroke-linejoin="round"/>
<path d="M30.2115 31.2866L20.3447 48.3687C20.7267 48.865 24.2373 53.2898 30.2975 53.2484C36.2558 53.207 39.6837 48.8872 40.0784 48.3687C36.7905 42.6747 33.4994 36.9807 30.2115 31.2866Z" stroke="#E9631A" stroke-width="2.76" stroke-linecap="round" stroke-linejoin="round"/>
<path d="M30.2115 31.2866H10.4747C10.2328 31.8656 8.15757 37.1174 11.2258 42.3439C14.24 47.478 19.6986 48.286 20.3447 48.3687C23.6326 42.6747 26.9236 36.9807 30.2115 31.2866Z" stroke="#E9631A" stroke-width="2.76" stroke-linecap="round" stroke-linejoin="round"/>
<path d="M30.2114 31.2866H49.9482C50.1901 31.8656 52.2654 37.1174 49.1971 42.3439C46.1829 47.478 40.7244 48.286 40.0782 48.3687C36.7904 42.6747 33.4993 36.9807 30.2114 31.2866Z" stroke="#E9631A" stroke-width="2.76" stroke-linecap="round" stroke-linejoin="round"/>
<path d="M59.1945 31.2801C59.1945 47.1503 46.4185 60.0398 30.5871 60.2433C30.4629 60.2433 30.3388 60.2433 30.2115 60.2433C30.0842 60.2433 29.96 60.2433 29.8359 60.2433C14.0044 60.0429 1.23169 47.1534 1.23169 31.2801C1.23169 15.4068 14.0044 2.51729 29.8359 2.31689C29.96 2.31689 30.0842 2.31689 30.2115 2.31689C30.3388 2.31689 30.4629 2.31689 30.5871 2.31689C46.4185 2.51729 59.1945 15.4068 59.1945 31.2801Z" stroke="#E9631A" stroke-width="2.76" stroke-linecap="round" stroke-linejoin="round"/>
</g>
<path d="M80.3888 12.7541C80.3888 14.4354 81.8304 14.6487 84.2587 14.6487C84.7097 14.6487 84.9352 14.8589 84.9352 15.1757V22.9926C84.9352 26.1482 82.4586 27.9016 78.5002 27.9016C74.5418 27.9016 72.2907 26.1827 72.2907 23.0992V7.42785H69.7256C69.3189 7.42785 69.0491 7.21775 69.0491 6.90095V3.64175C69.0491 3.32495 69.3189 3.11475 69.7256 3.11475H84.307C84.7137 3.11475 84.9835 3.32495 84.9835 3.64175V6.90095C84.9835 7.21775 84.7137 7.42785 84.307 7.42785H80.3928V12.7572L80.3888 12.7541Z" fill="#E9631A"/>
<path d="M94.615 7.09863C96.6889 7.09863 97.2183 7.79483 97.2183 8.21133C97.2183 7.79483 97.396 7.17013 98.1466 7.17013H104.372C104.945 7.17013 105.344 7.37833 105.344 7.69223V26.9371C105.344 27.251 104.945 27.4592 104.372 27.4592H99.0749C98.4587 27.4592 98.0597 27.251 98.0597 26.9371V26.3124C97.6173 26.8687 96.602 27.4592 94.8797 27.4592C91.04 27.4592 86.7539 25.5478 86.7539 17.5944C86.7539 13.1126 89.049 7.10483 94.615 7.10483V7.09863ZM97.2183 16.059V10.5361C97.2183 10.2936 96.9971 10.1538 96.602 10.1538C95.6303 10.1538 93.5563 11.6487 93.5563 13.4887C93.5563 15.9192 94.8797 16.6837 96.3374 16.6837C96.9536 16.6837 97.2222 16.4755 97.2222 16.059H97.2183Z" fill="#E9631A"/>
<path d="M107.561 26.9361V7.65593C107.561 7.34153 107.827 7.13283 108.228 7.13283H111.688C112.088 7.13283 112.354 7.34153 112.354 7.65593V9.88233C112.354 8.90773 114.703 7.09863 118.076 7.09863C123.13 7.09863 126.59 9.60513 126.59 14.9296V26.9361C126.59 27.2506 126.324 27.4592 125.924 27.4592H119.492C119.091 27.4592 118.825 27.2506 118.825 26.9361V18.2706C118.825 16.1813 118.425 15.2783 117.096 15.2783C115.766 15.2783 115.366 16.1844 115.366 18.2706V26.9361C115.366 27.2506 115.1 27.4592 114.699 27.4592H108.224C107.823 27.4592 107.557 27.2506 107.557 26.9361H107.561Z" fill="#E9631A"/>
<path d="M131.411 34.0182V29.6083C131.411 29.292 131.676 29.0821 132.076 29.0821C136.327 29.1166 139.472 28.8378 139.472 28.2428C139.472 28.0674 139.163 27.8231 138.454 27.5788C138.189 27.4754 137.967 27.4378 137.614 27.4378C131.458 27.2969 128.361 25.1264 128.361 21.0673C128.361 12.4919 132.346 7.09863 138.367 7.09863H146.956C147.356 7.09863 147.573 7.30843 147.573 7.62483V11.4051C147.573 11.6494 147.221 11.9313 146.686 11.8248H146.551C146.373 11.8248 146.286 11.8937 146.286 12.0691C146.286 12.138 146.286 12.2789 146.373 12.4199C147.613 14.7657 148.279 17.4968 148.279 21.0673C148.279 23.9018 146.73 25.7935 143.806 26.7394C143.541 26.8083 143.406 26.9148 143.406 27.0181C143.406 27.1215 143.537 27.228 143.759 27.2969C145.93 28.1018 148.275 29.3609 148.275 31.1461C148.275 33.3855 144.82 34.5412 138.181 34.5412H132.072C131.672 34.5412 131.407 34.3314 131.407 34.015L131.411 34.0182ZM140.799 14.6593C140.799 12.5232 139.738 10.1429 138.407 10.1429C136.945 10.1429 135.927 12.2789 135.927 14.6593C135.927 15.8839 136.945 16.6199 138.537 16.6199C139.908 16.6199 140.796 15.8839 140.796 14.6593H140.799Z" fill="#E9631A"/>
<path d="M65.9538 48.84C65.9538 44.6979 68.0245 35.8169 74.3842 35.8169C79.0911 35.8169 80.1437 38.3104 80.1437 42.3112C80.1437 42.6629 79.9332 42.8388 79.6158 42.8388H72.9419C72.6246 42.8388 72.3795 42.9801 72.3795 43.2941C72.3795 44.9428 74.1705 45.5772 79.685 45.5772C80.0369 45.5772 80.2474 45.7876 80.2474 46.1047V55.9341C80.2474 56.2513 80.0369 56.4617 79.7195 56.4617H75.4337C69.9538 56.4617 65.9507 54.6026 65.9507 48.8463L65.9538 48.84ZM75.5059 39.7141C75.33 39.2588 75.0126 38.9416 74.4879 38.9416C73.8563 38.9416 73.4353 39.2211 73.1179 39.6796C73.0488 39.7863 73.0142 39.89 73.0142 39.9591C73.0142 40.1695 73.1902 40.3108 73.4698 40.3108H75.0849C75.4368 40.3108 75.6473 40.0658 75.5059 39.7141Z" fill="#E9631A"/>
<path d="M81.9348 55.9312V36.4861C81.9348 36.1689 82.1453 35.9585 82.4627 35.9585H85.4477C85.7651 35.9585 85.9756 36.1689 85.9756 36.4861V38.2761C85.9756 37.1173 88.0463 35.9585 91.3141 35.9585C91.666 35.9585 91.8765 36.1343 91.8765 36.4861V39.6798C91.8765 39.997 91.7351 40.2419 91.4209 40.2419C89.1397 40.2419 88.2254 41.5043 88.2254 43.9287V55.9343C88.2254 56.2515 88.0148 56.4619 87.6975 56.4619H82.4658C82.1485 56.4619 81.938 56.2515 81.938 55.9343L81.9348 55.9312Z" fill="#E9631A"/>
<path d="M93.4192 34.3096V32.4128C93.4192 32.0957 93.6297 31.8853 93.9471 31.8853H99.0405C99.3578 31.8853 99.5684 32.0957 99.5684 32.4128V34.3096C99.5684 34.6268 99.3578 34.8372 99.0405 34.8372H93.9471C93.6297 34.8372 93.4192 34.6268 93.4192 34.3096ZM93.4192 55.931V36.4859C93.4192 36.1687 93.6297 35.9583 93.9471 35.9583H99.0405C99.3578 35.9583 99.5684 36.1687 99.5684 36.4859V55.931C99.5684 56.2482 99.3578 56.4586 99.0405 56.4586H93.9471C93.6297 56.4586 93.4192 56.2482 93.4192 55.931Z" fill="#E9631A"/>
<path d="M101.249 55.9311V36.486C101.249 36.1688 101.46 35.9584 101.777 35.9584H104.517C104.835 35.9584 105.045 36.1688 105.045 36.486V38.7313C105.045 37.7484 106.905 35.9238 109.576 35.9238C113.579 35.9238 116.319 38.4518 116.319 43.8218V55.9311C116.319 56.2482 116.109 56.4587 115.791 56.4587H110.698C110.381 56.4587 110.17 56.2482 110.17 55.9311V47.1914C110.17 45.0843 109.853 44.1736 108.8 44.1736C107.747 44.1736 107.43 45.0874 107.43 47.1914V55.9311C107.43 56.2482 107.22 56.4587 106.902 56.4587H101.774C101.457 56.4587 101.246 56.2482 101.246 55.9311H101.249Z" fill="#E9631A"/>
<path d="M117.72 48.84C117.72 44.6979 119.791 35.8169 126.151 35.8169C130.858 35.8169 131.91 38.3104 131.91 42.3112C131.91 42.6629 131.7 42.8388 131.382 42.8388H124.709C124.391 42.8388 124.146 42.9801 124.146 43.2941C124.146 44.9428 125.937 45.5772 131.452 45.5772C131.803 45.5772 132.014 45.7876 132.014 46.1047V55.9341C132.014 56.2513 131.803 56.4617 131.486 56.4617H127.2C121.72 56.4617 117.717 54.6026 117.717 48.8463L117.72 48.84ZM127.273 39.7141C127.097 39.2588 126.782 38.9416 126.254 38.9416C125.623 38.9416 125.202 39.2211 124.885 39.6796C124.815 39.7863 124.778 39.89 124.778 39.9591C124.778 40.1695 124.954 40.3108 125.233 40.3108H126.848C127.2 40.3108 127.411 40.0658 127.269 39.7141H127.273Z" fill="#E9631A"/>
<path d="M133.947 55.9312V46.0328C133.947 45.7156 134.157 45.5052 134.474 45.5052C136.897 45.5052 138.056 45.3294 138.056 44.874C138.056 44.5568 137.459 44.1015 136.335 43.4703C134.437 42.4183 133.629 41.4353 133.629 39.8903C133.629 38.1348 135.068 35.7827 140.338 35.7827C145.29 35.7827 147.184 37.7831 147.36 41.608C147.36 41.8875 147.15 42.0634 146.832 42.0634H143.25C142.933 42.0634 142.722 41.8875 142.722 41.608C142.722 40.3079 142.512 38.766 140.721 38.766C139.175 38.766 138.93 39.9248 138.93 40.4869C138.93 43.6807 148.306 42.6632 148.306 50.489C148.306 53.5069 146.446 56.4557 139.386 56.4557H134.468C134.151 56.4557 133.94 56.2453 133.94 55.9281L133.947 55.9312Z" fill="#E9631A"/>
</svg>
