<svg width="416" height="70" viewBox="0 0 416 70" fill="none" xmlns="http://www.w3.org/2000/svg">
<g clip-path="url(#clip0_124_1140)">
<path d="M29.2971 29.4559L38.8651 12.891C38.4948 12.4098 35.0904 8.11895 29.2137 8.15905C23.4359 8.19915 20.1117 12.3882 19.729 12.891C22.9173 18.4126 26.1087 23.9342 29.2971 29.4559Z" stroke="#E9631A" stroke-width="2.76" stroke-linecap="round" stroke-linejoin="round"/>
<path d="M29.2971 29.4559H48.4363C48.6709 28.8944 50.6833 23.8016 47.7079 18.7334C44.7851 13.7547 39.4917 12.9712 38.8652 12.891C35.6769 18.4126 32.4854 23.9342 29.2971 29.4559Z" stroke="#E9631A" stroke-width="2.76" stroke-linecap="round" stroke-linejoin="round"/>
<path d="M29.297 29.4559H10.1578C9.92325 28.8944 7.91087 23.8016 10.8862 18.7334C13.8091 13.7547 19.1024 12.9712 19.729 12.891C22.9173 18.4126 26.1087 23.9342 29.297 29.4559Z" stroke="#E9631A" stroke-width="2.76" stroke-linecap="round" stroke-linejoin="round"/>
<path d="M29.2971 29.4651L19.729 46.03C20.0994 46.5112 23.5038 50.802 29.3804 50.7619C35.1583 50.7218 38.4824 46.5328 38.8651 46.03C35.6768 40.5084 32.4854 34.9867 29.2971 29.4651Z" stroke="#E9631A" stroke-width="2.76" stroke-linecap="round" stroke-linejoin="round"/>
<path d="M29.297 29.4651H10.1578C9.92325 30.0265 7.91087 35.1194 10.8862 40.1876C13.8091 45.1663 19.1024 45.9498 19.729 46.03C22.9173 40.5084 26.1087 34.9867 29.297 29.4651Z" stroke="#E9631A" stroke-width="2.76" stroke-linecap="round" stroke-linejoin="round"/>
<path d="M29.2971 29.4651H48.4363C48.6709 30.0265 50.6833 35.1194 47.7079 40.1876C44.7851 45.1663 39.4917 45.9498 38.8652 46.03C35.6769 40.5084 32.4854 34.9867 29.2971 29.4651Z" stroke="#E9631A" stroke-width="2.76" stroke-linecap="round" stroke-linejoin="round"/>
<path d="M57.4024 29.4589C57.4024 44.8485 45.0132 57.3478 29.6611 57.5452C29.5408 57.5452 29.4204 57.5452 29.2969 57.5452C29.1735 57.5452 29.0531 57.5452 28.9327 57.5452C13.5806 57.3509 1.19458 44.8516 1.19458 29.4589C1.19458 14.0663 13.5806 1.56703 28.9327 1.3727C29.0531 1.3727 29.1735 1.3727 29.2969 1.3727C29.4204 1.3727 29.5408 1.3727 29.6611 1.3727C45.0132 1.56703 57.4024 14.0663 57.4024 29.4589Z" stroke="#E9631A" stroke-width="2.76" stroke-linecap="round" stroke-linejoin="round"/>
</g>
<path d="M89.4898 23.0618C89.4898 26.6461 92.5632 27.1008 97.7398 27.1008C98.7013 27.1008 99.182 27.5489 99.182 28.2243V44.8887C99.182 51.616 93.9024 55.3541 85.4636 55.3541C77.0248 55.3541 72.2259 51.6895 72.2259 45.116V11.707H66.7574C65.8904 11.707 65.3152 11.2589 65.3152 10.5835V3.63555C65.3152 2.96015 65.8904 2.51212 66.7574 2.51212H97.8428C98.7098 2.51212 99.285 2.96015 99.285 3.63555V10.5835C99.285 11.2589 98.7098 11.707 97.8428 11.707H89.4984V23.0685L89.4898 23.0618Z" fill="#E9631A"/>
<path d="M119.818 11.0046C124.24 11.0046 125.368 12.4888 125.368 13.3766C125.368 12.4888 125.747 11.157 127.347 11.157H140.619C141.84 11.157 142.691 11.6009 142.691 12.2701V53.2973C142.691 53.9666 141.84 54.4105 140.619 54.4105H129.326C128.012 54.4105 127.162 53.9666 127.162 53.2973V51.9655C126.219 53.1516 124.054 54.4105 120.383 54.4105C112.197 54.4105 103.06 50.3356 103.06 33.38C103.06 23.8256 107.952 11.0178 119.818 11.0178V11.0046ZM125.368 30.1069V18.3328C125.368 17.8159 124.896 17.5178 124.054 17.5178C121.983 17.5178 117.561 20.7048 117.561 24.6273C117.561 29.8087 120.383 31.4387 123.49 31.4387C124.804 31.4387 125.376 30.9948 125.376 30.1069H125.368Z" fill="#E9631A"/>
<path d="M147.417 53.2953V12.1928C147.417 11.5223 147.984 11.0776 148.838 11.0776H156.214C157.068 11.0776 157.635 11.5223 157.635 12.1928V16.9389C157.635 14.8612 162.642 11.0046 169.832 11.0046C180.608 11.0046 187.984 16.3482 187.984 27.6992V53.2953C187.984 53.9657 187.417 54.4105 186.563 54.4105H172.852C171.997 54.4105 171.431 53.9657 171.431 53.2953V34.8217C171.431 30.3676 170.576 28.4426 167.743 28.4426C164.909 28.4426 164.055 30.3743 164.055 34.8217V53.2953C164.055 53.9657 163.488 54.4105 162.634 54.4105H148.83C147.975 54.4105 147.409 53.9657 147.409 53.2953H147.417Z" fill="#E9631A"/>
<path d="M198.261 68.3931V58.992C198.261 58.3176 198.827 57.8702 199.68 57.8702C208.742 57.9437 215.447 57.3494 215.447 56.0808C215.447 55.7069 214.789 55.1861 213.277 54.6653C212.711 54.445 212.238 54.3648 211.486 54.3648C198.363 54.0644 191.759 49.4372 191.759 40.7839C191.759 22.5023 200.254 11.0046 213.091 11.0046H231.4C232.253 11.0046 232.718 11.4519 232.718 12.1263V20.1854C232.718 20.7062 231.966 21.3071 230.826 21.0801H230.539C230.159 21.0801 229.973 21.227 229.973 21.6009C229.973 21.7478 229.973 22.0483 230.159 22.3487C232.802 27.3498 234.221 33.1721 234.221 40.7839C234.221 46.8265 230.919 50.8594 224.686 52.8759C224.12 53.0228 223.833 53.2498 223.833 53.4701C223.833 53.6904 224.112 53.9175 224.585 54.0644C229.213 55.7803 234.212 58.4645 234.212 62.2704C234.212 67.0444 226.848 69.5082 212.694 69.5082H199.672C198.819 69.5082 198.253 69.0608 198.253 68.3865L198.261 68.3931ZM218.276 27.1228C218.276 22.5691 216.013 17.4946 213.175 17.4946C210.059 17.4946 207.889 22.0483 207.889 27.1228C207.889 29.7335 210.059 31.3026 213.454 31.3026C216.376 31.3026 218.268 29.7335 218.268 27.1228H218.276Z" fill="#E9631A"/>
<path d="M240.437 39.221C240.437 30.3905 244.851 11.4577 258.409 11.4577C268.444 11.4577 270.688 16.7734 270.688 25.3025C270.688 26.0523 270.239 26.4272 269.562 26.4272H255.335C254.658 26.4272 254.136 26.7285 254.136 27.398C254.136 30.9127 257.954 32.2651 269.71 32.2651C270.46 32.2651 270.909 32.7136 270.909 33.3898V54.3445C270.909 55.0207 270.46 55.4692 269.784 55.4692H260.647C248.964 55.4692 240.43 51.5059 240.43 39.2343L240.437 39.221ZM260.801 19.7659C260.426 18.7952 259.749 18.119 258.63 18.119C257.284 18.119 256.386 18.7148 255.71 19.6923C255.562 19.9199 255.489 20.1408 255.489 20.2881C255.489 20.7367 255.864 21.0379 256.46 21.0379H259.903C260.653 21.0379 261.102 20.5157 260.801 19.7659Z" fill="#E9631A"/>
<path d="M274.506 54.3379V12.8838C274.506 12.2076 274.955 11.759 275.631 11.759H281.995C282.671 11.759 283.12 12.2076 283.12 12.8838V16.6998C283.12 14.2294 287.535 11.759 294.501 11.759C295.251 11.759 295.7 12.1339 295.7 12.8838V19.6923C295.7 20.3685 295.399 20.8907 294.729 20.8907C289.866 20.8907 287.916 23.582 287.916 28.7504V54.3446C287.916 55.0207 287.468 55.4693 286.791 55.4693H275.638C274.961 55.4693 274.513 55.0207 274.513 54.3446L274.506 54.3379Z" fill="#E9631A"/>
<path d="M298.989 8.24426V4.2006C298.989 3.52443 299.438 3.07588 300.115 3.07588H310.973C311.65 3.07588 312.098 3.52443 312.098 4.2006V8.24426C312.098 8.92043 311.65 9.36898 310.973 9.36898H300.115C299.438 9.36898 298.989 8.92043 298.989 8.24426ZM298.989 54.3378V12.8837C298.989 12.2076 299.438 11.759 300.115 11.759H310.973C311.65 11.759 312.098 12.2076 312.098 12.8837V54.3378C312.098 55.014 311.65 55.4626 310.973 55.4626H300.115C299.438 55.4626 298.989 55.014 298.989 54.3378Z" fill="#E9631A"/>
<path d="M315.682 54.3378V12.8837C315.682 12.2076 316.131 11.759 316.808 11.759H322.649C323.325 11.759 323.774 12.2076 323.774 12.8837V17.6705C323.774 15.575 327.74 11.6854 333.433 11.6854C341.967 11.6854 347.809 17.0747 347.809 28.5228V54.3378C347.809 55.014 347.36 55.4626 346.683 55.4626H335.825C335.148 55.4626 334.699 55.014 334.699 54.3378V35.7063C334.699 31.2141 334.023 29.2726 331.779 29.2726C329.535 29.2726 328.858 31.2208 328.858 35.7063V54.3378C328.858 55.014 328.41 55.4626 327.733 55.4626H316.801C316.124 55.4626 315.676 55.014 315.676 54.3378H315.682Z" fill="#E9631A"/>
<path d="M350.796 39.221C350.796 30.3905 355.21 11.4577 368.768 11.4577C378.803 11.4577 381.047 16.7734 381.047 25.3025C381.047 26.0523 380.598 26.4272 379.921 26.4272H365.694C365.017 26.4272 364.495 26.7285 364.495 27.398C364.495 30.9127 368.313 32.2651 380.069 32.2651C380.819 32.2651 381.268 32.7136 381.268 33.3898V54.3445C381.268 55.0207 380.819 55.4692 380.142 55.4692H371.006C359.323 55.4692 350.789 51.5059 350.789 39.2343L350.796 39.221ZM371.16 19.7659C370.785 18.7952 370.115 18.119 368.989 18.119C367.643 18.119 366.745 18.7148 366.069 19.6923C365.921 19.9199 365.841 20.1408 365.841 20.2881C365.841 20.7367 366.216 21.0379 366.812 21.0379H370.255C371.006 21.0379 371.454 20.5157 371.153 19.7659H371.16Z" fill="#E9631A"/>
<path d="M385.387 54.3378V33.2359C385.387 32.5597 385.836 32.1112 386.513 32.1112C391.677 32.1112 394.149 31.7362 394.149 30.7655C394.149 30.0893 392.877 29.1186 390.478 27.7729C386.432 25.5302 384.711 23.4347 384.711 20.1409C384.711 16.3985 387.779 11.3841 399.012 11.3841C409.569 11.3841 413.609 15.6487 413.984 23.8029C413.984 24.3988 413.535 24.7737 412.858 24.7737H405.222C404.545 24.7737 404.097 24.3988 404.097 23.8029C404.097 21.0313 403.648 17.7441 399.83 17.7441C396.534 17.7441 396.011 20.2145 396.011 21.4129C396.011 28.2215 416 26.0524 416 42.7358C416 49.1695 412.034 55.4559 396.983 55.4559H386.499C385.823 55.4559 385.374 55.0073 385.374 54.3311L385.387 54.3378Z" fill="#E9631A"/>
<defs>
<clipPath id="clip0_124_1140">
<rect width="59.2325" height="59.2325" fill="white"/>
</clipPath>
</defs>
</svg>
