<svg width="60" height="60" viewBox="0 0 60 60" fill="none" xmlns="http://www.w3.org/2000/svg">
<path d="M40.1683 30.8635H40.2363C40.3922 30.8959 40.5292 31.029 40.5292 31.2535V44.7528C40.5292 44.8151 40.4927 44.9207 40.396 45.0204C40.2978 45.1215 40.2025 45.1507 40.1604 45.1507H32.2863C32.033 45.1507 31.8386 44.9136 31.8386 44.7528V39.5764V39.0764H31.3386H28.5665H28.0665V39.5764V44.7528C28.0665 44.8509 28.0255 44.964 27.9547 45.0492C27.884 45.1344 27.8212 45.1507 27.7925 45.1507H19.8236C19.6265 45.1507 19.4548 44.9723 19.4548 44.7528V31.7064C19.4548 31.5349 19.5066 31.4447 19.5509 31.3995C19.5945 31.355 19.6753 31.3085 19.8236 31.3085C20.013 31.3085 20.1924 31.4431 20.1924 31.7064V43.7456V44.2456H20.6924H26.8368H27.3368V43.7456V38.6863C27.3368 38.6236 27.3715 38.5225 27.4676 38.4291C27.5605 38.3389 27.6783 38.2885 27.7925 38.2885H32.2863C32.3151 38.2885 32.3779 38.3048 32.4486 38.3899C32.5193 38.4751 32.5603 38.5882 32.5603 38.6863V43.7456V44.2456H33.0603H39.2996H39.7996V43.7456V31.2613C39.7996 31.0899 39.8513 30.9997 39.8956 30.9544C39.9392 30.9099 40.02 30.8635 40.1683 30.8635ZM19.6737 17.8041C19.7443 17.7131 19.8082 17.6936 19.8431 17.6922C19.872 17.6935 19.9341 17.7107 20.0051 17.8028C20.0785 17.8981 20.1371 18.0487 20.1371 18.2305V25.1012V26.3492L20.9988 25.4464L29.7179 16.3116L29.7404 16.288L29.7596 16.2618C29.8163 16.1844 29.9119 16.1342 30.0305 16.1308C30.0328 16.132 30.0357 16.1337 30.0395 16.136C30.0624 16.1505 30.1058 16.1861 30.1612 16.2618L30.1813 16.2892L30.2049 16.3136C35.3055 21.598 38.8501 25.3049 44.5664 31.3852L44.5727 31.3919L44.5792 31.3983C44.639 31.4574 44.6913 31.5726 44.6913 31.721C44.6913 31.852 44.6507 31.9532 44.603 32.0122C44.4843 32.0924 44.4141 32.1199 44.3226 32.1199C44.2632 32.1199 44.1952 32.1056 44.1372 32.0827C44.1126 32.073 44.0952 32.0638 44.0849 32.0576L44.0784 32.0506L30.4073 17.5364L30.0474 17.1543L29.6833 17.5323L15.9253 31.8123L15.9058 31.8325L15.8887 31.8548C15.7887 31.9851 15.7076 31.9988 15.6783 31.9988C15.6499 31.9988 15.5723 31.9863 15.477 31.8592L15.4216 31.7852L15.3497 31.74C15.3476 31.737 15.3437 31.7309 15.3391 31.7204C15.3268 31.6925 15.3164 31.6491 15.3164 31.5971C15.3164 31.5138 15.344 31.4051 15.4587 31.2499L19.4034 27.1172L19.5417 26.9723V26.772V18.2305C19.5417 18.0487 19.6003 17.8987 19.6737 17.8041ZM44.0768 32.0521C44.0771 32.0523 44.0775 32.0527 44.078 32.0531C44.0774 32.0527 44.077 32.0524 44.0767 32.0522C44.0765 32.052 44.0764 32.0519 44.0764 32.0519C44.0763 32.0518 44.0765 32.0519 44.0768 32.0521Z" stroke="#E9631A"/>
<rect x="1" y="1" width="58" height="58" rx="4" stroke="#E9631A" stroke-width="2"/>
</svg>
