<svg width="42" height="48" viewBox="0 0 42 48" fill="none" xmlns="http://www.w3.org/2000/svg">
<path d="M34.4701 9.52001C32.8801 9.52001 31.5901 8.23001 31.5901 6.64001C31.5901 5.05001 32.8801 3.76001 34.4701 3.76001C34.8701 3.76001 35.1901 4.08001 35.1901 4.48001C35.1901 4.88001 34.8701 5.20001 34.4701 5.20001C33.6801 5.20001 33.0301 5.85001 33.0301 6.64001C33.0301 7.43001 33.6801 8.08001 34.4701 8.08001C34.8701 8.08001 35.1901 8.40001 35.1901 8.80001C35.1901 9.20001 34.8701 9.52001 34.4701 9.52001Z" fill="#363436"/>
<path d="M19.68 44.01H13.93C13.53 44.01 13.21 43.69 13.21 43.29V38.98C13.21 38.58 13.53 38.26 13.93 38.26C14.33 38.26 14.65 38.58 14.65 38.98V42.57H18.96V38.98C18.96 38.58 19.28 38.26 19.68 38.26C20.08 38.26 20.4 38.58 20.4 38.98V43.29C20.4 43.69 20.08 44.01 19.68 44.01Z" fill="#363436"/>
<path d="M34.0601 39.7H7.46008C5.87008 39.7 4.58008 38.41 4.58008 36.82V6.63C4.58008 5.04 5.87008 3.75 7.46008 3.75H34.4701C34.8701 3.75 35.1901 4.07 35.1901 4.47C35.1901 4.87 34.8701 5.19 34.4701 5.19H7.46008C6.67008 5.19 6.02008 5.84 6.02008 6.63C6.02008 7.42 6.67008 8.07 7.46008 8.07H34.0601C35.2501 8.07 36.2201 9.04 36.2201 10.23V37.55C36.2201 38.74 35.2501 39.71 34.0601 39.71V39.7ZM6.02008 9.12V36.83C6.02008 37.62 6.67008 38.27 7.46008 38.27H34.0601C34.4601 38.27 34.7801 37.95 34.7801 37.55V10.22C34.7801 9.82 34.4601 9.5 34.0601 9.5H7.46008C6.94008 9.5 6.45008 9.36 6.02008 9.11V9.12Z" fill="#363436"/>
<path d="M9.60989 39.7001C9.20989 39.7001 8.88989 39.3801 8.88989 38.9801V8.79007C8.88989 8.39007 9.20989 8.07007 9.60989 8.07007C10.0099 8.07007 10.3299 8.39007 10.3299 8.79007V38.9901C10.3299 39.3901 10.0099 39.7101 9.60989 39.7101V39.7001Z" fill="#363436"/>
<path d="M28.3101 31.0699H16.8101C16.4101 31.0699 16.0901 30.7499 16.0901 30.3499V24.5999C16.0901 24.1999 16.4101 23.8799 16.8101 23.8799H28.3101C28.7101 23.8799 29.0301 24.1999 29.0301 24.5999V30.3499C29.0301 30.7499 28.7101 31.0699 28.3101 31.0699ZM17.5201 29.6299H27.5901V25.3199H17.5201V29.6299Z" fill="#363436"/>
<path d="M28.31 25.3199C28.08 25.3199 27.85 25.2099 27.71 24.9999C27.49 24.6699 27.58 24.2199 27.91 23.9999C28.62 23.5199 30.47 21.9299 30.47 20.3299C30.47 19.5899 30.36 18.6399 29.84 18.3199C29.38 18.0299 28.55 18.1799 27.39 18.7499C27.17 18.8599 27.04 18.9199 26.84 18.9099C26.65 18.8999 26.47 18.8099 26.34 18.6699C26.21 18.5199 26.15 18.3299 26.16 18.1399C26.23 17.1599 25.83 16.3899 24.97 15.8599C23.62 15.0399 21.51 15.0399 20.17 15.8599C19.3 16.3899 18.9 17.1599 18.98 18.1399C18.99 18.3299 18.93 18.5199 18.8 18.6699C18.67 18.8199 18.49 18.8999 18.3 18.9099C18.09 18.9199 17.96 18.8599 17.75 18.7499C16.59 18.1699 15.76 18.0299 15.3 18.3199C14.78 18.6399 14.67 19.5899 14.67 20.3299C14.67 21.9299 16.52 23.5199 17.23 23.9999C17.56 24.2199 17.65 24.6699 17.43 24.9999C17.21 25.3299 16.76 25.4199 16.43 25.1999C16.3 25.1099 13.23 23.0299 13.23 20.3299C13.23 18.7299 13.67 17.6399 14.54 17.0999C15.53 16.4899 16.77 16.7899 17.61 17.1199C17.82 16.0999 18.44 15.2399 19.42 14.6399C21.22 13.5399 23.93 13.5399 25.72 14.6399C26.7 15.2399 27.32 16.0999 27.53 17.1199C28.38 16.7899 29.61 16.4899 30.6 17.0999C31.47 17.6399 31.91 18.7299 31.91 20.3299C31.91 23.0299 28.85 25.1099 28.71 25.1999C28.59 25.2799 28.45 25.3199 28.31 25.3199Z" fill="#363436"/>
</svg>
