<svg width="32" height="35" viewBox="0 0 32 35" fill="none" xmlns="http://www.w3.org/2000/svg">
<g clip-path="url(#clip0_31_68)">
<path d="M21.9279 5.47264C16.9179 0.494797 8.77114 0.494797 3.76115 5.47264C-1.24883 10.4505 -1.24883 18.5524 3.76115 23.5302C8.77114 28.5081 16.9254 28.5081 21.9354 23.5302C26.9454 18.5524 26.9454 10.4505 21.9354 5.47264H21.9279ZM5.65662 21.6469C1.69472 17.7105 1.69472 11.2998 5.65662 7.36334C9.61853 3.42685 16.0706 3.42685 20.0325 7.36334C23.9944 11.2998 23.9944 17.7105 20.0325 21.6469C16.0706 25.5834 9.61853 25.5834 5.65662 21.6469Z" fill="#363436"/>
<path d="M24.2397 22.9468C23.8457 23.4934 23.3997 24.0104 22.9091 24.4978C22.4185 24.9852 21.8908 25.4284 21.3481 25.8198L28.5138 32.9395C29.3166 33.7371 30.6099 33.7371 31.4127 32.9395C32.2155 32.1418 32.2155 30.8567 31.4127 30.0591L24.2471 22.9395L24.2397 22.9468Z" fill="#363436"/>
<path d="M17.2302 9.46819C17.0667 9.46819 16.8957 9.41649 16.7545 9.31309C15.6172 8.47114 14.2569 8.02801 12.8372 8.02801C11.4174 8.02801 10.0571 8.47114 8.91985 9.31309C8.57049 9.57159 8.06503 9.49773 7.80487 9.15061C7.54471 8.79611 7.61904 8.30128 7.9684 8.04278C9.38814 7.00142 11.0681 6.44751 12.8297 6.44751C14.5914 6.44751 16.2787 7.00142 17.691 8.04278C18.0478 8.30128 18.1222 8.79611 17.8546 9.15061C17.6985 9.35741 17.4606 9.46819 17.2153 9.46819H17.2302Z" fill="#363436"/>
</g>
<defs>
<clipPath id="clip0_31_68">
<rect width="32" height="35" fill="white"/>
</clipPath>
</defs>
</svg>
