<svg width="29" height="40" viewBox="0 0 29 40" fill="none" xmlns="http://www.w3.org/2000/svg">
<g clip-path="url(#clip0_31_24)">
<path d="M29 8.8372C29 5.50317 26.1825 2.79373 22.7243 2.79373C22.0572 2.79373 21.3989 2.89502 20.7757 3.08916C20.3632 2.54052 19.8717 2.04252 19.3275 1.62049C17.967 0.573856 16.2554 -0.00854492 14.5 -0.00854492C12.7446 -0.00854492 11.0418 0.565416 9.67252 1.62049C9.11955 2.04252 8.6368 2.54052 8.22427 3.08916C7.79419 2.95411 7.35533 2.86126 6.91646 2.81906C6.70581 2.80218 6.48638 2.78529 6.27573 2.78529C2.81749 2.79373 0 5.50317 0 8.82876V8.84564C0 11.9349 2.4664 14.5431 5.63499 14.8469V21.1942C5.63499 21.5319 5.92464 21.8104 6.27573 21.8104H22.7243C23.0754 21.8104 23.365 21.5319 23.365 21.1942V14.8469C26.5424 14.5346 29 11.9265 29 8.84564V8.8372ZM18.2479 12.1797C18.125 12.2979 18.0548 12.4498 18.0548 12.6102C18.0548 12.7705 18.1162 12.9309 18.2391 13.0491C19.2748 14.0704 20.6353 14.695 22.0923 14.8385V20.595H6.90769V19.3373H19.0203C19.3714 19.3373 19.6522 19.0588 19.6522 18.7211C19.6522 18.3835 19.3626 18.105 19.0203 18.105H6.90769V14.83C8.36471 14.6865 9.73396 14.0535 10.7609 13.0406C11.0067 12.7958 10.9979 12.4076 10.7521 12.1712C10.6292 12.0615 10.4712 11.994 10.3045 11.994C10.1377 11.994 9.97094 12.0615 9.84806 12.1797C8.90012 13.1166 7.62742 13.6315 6.26695 13.6315C3.5109 13.6315 1.2727 11.4791 1.26392 8.82876C1.26392 6.17842 3.5109 4.02606 6.26695 4.02606C6.69703 4.02606 7.12712 4.07671 7.53965 4.18643C7.29389 4.67599 7.10079 5.18242 6.97791 5.6973C6.9428 5.85767 6.96913 6.01804 7.0569 6.16153C7.14467 6.30502 7.28511 6.39787 7.45188 6.44007C7.50454 6.44851 7.54843 6.45696 7.60109 6.45696C7.89952 6.45696 8.15405 6.26282 8.2155 5.98428C8.36471 5.37656 8.61047 4.79416 8.93523 4.2624C8.96156 4.23708 8.98789 4.20332 9.01423 4.16955C10.1992 2.3295 12.253 1.23222 14.5 1.23222C16.747 1.23222 18.8008 2.3295 19.9858 4.16955C20.0033 4.20332 20.0297 4.23708 20.0648 4.2624C20.3895 4.79416 20.6353 5.37656 20.7845 5.98428C20.8547 6.26282 21.1093 6.45696 21.3989 6.45696C21.4516 6.45696 21.4955 6.45696 21.5481 6.44007C21.7149 6.40631 21.8553 6.30502 21.9431 6.16153C22.0309 6.02648 22.0572 5.85767 22.0221 5.6973C21.8904 5.17398 21.7061 4.66755 21.4604 4.18643C21.8729 4.08515 22.303 4.02606 22.733 4.02606C25.4891 4.02606 27.7273 6.17842 27.7361 8.82876C27.7361 11.4791 25.4891 13.6315 22.733 13.6315C21.3726 13.6315 20.0999 13.1166 19.1519 12.1797C19.0291 12.0615 18.8711 11.994 18.6955 11.994C18.52 11.994 18.3708 12.0531 18.2479 12.1712V12.1797Z" fill="#363436"/>
<path d="M22.7593 22.511C22.3995 22.511 22.101 22.798 22.101 23.144C22.101 27.1702 18.6955 30.4536 14.5 30.4536C10.3044 30.4536 6.89886 27.1786 6.89886 23.144C6.89886 22.798 6.60044 22.511 6.24057 22.511C5.8807 22.511 5.58228 22.798 5.58228 23.144C5.58228 27.8708 9.5847 31.7112 14.4912 31.7112C19.3976 31.7112 23.4001 27.8623 23.4001 23.144C23.4001 22.798 23.1016 22.511 22.7418 22.511H22.7593Z" fill="#363436"/>
<path d="M20.9161 32.243C20.7669 32.243 20.6176 32.2937 20.5035 32.3781C19.854 32.8761 18.3531 33.2897 16.5626 33.4669C16.2378 32.6651 15.4215 32.1333 14.4999 32.1333C13.5783 32.1333 12.762 32.6651 12.4372 33.4669C10.6467 33.2897 9.14578 32.8845 8.49627 32.3781C8.38217 32.2852 8.23295 32.243 8.08374 32.243C7.88186 32.243 7.69754 32.3274 7.56588 32.4794C7.46055 32.6144 7.40789 32.7748 7.42545 32.9436C7.443 33.1124 7.53077 33.2643 7.67121 33.3656C8.34706 33.8805 9.46177 34.2857 10.9276 34.5389C10.2693 34.9609 9.81286 35.5349 9.55832 36.2523C9.46177 36.5224 9.4091 36.7841 9.36522 37.0373C9.24233 37.6619 9.13701 38.1937 8.34706 38.9027C8.14518 39.0799 8.07496 39.3669 8.18907 39.6117C8.29439 39.848 8.53138 39.9999 8.7947 39.9999C8.80347 39.9999 8.82103 39.9999 8.8298 39.9999H8.9088C10.5238 39.9071 12.3583 39.7974 13.4027 38.6326C13.8943 38.0839 14.2629 37.4424 14.4999 36.7165C14.7369 37.4424 15.1143 38.0839 15.5971 38.6326C16.6415 39.8058 18.476 39.9071 20.091 39.9999H20.17C20.17 39.9999 20.1963 39.9999 20.2051 39.9999C20.4684 39.9999 20.7054 39.848 20.8107 39.6117C20.9161 39.3669 20.8546 39.0799 20.6527 38.9027C19.854 38.2021 19.7575 37.6619 19.6346 37.0373C19.5819 36.7841 19.538 36.5224 19.4415 36.2523C19.1869 35.5349 18.7218 34.9609 18.0722 34.5389C19.538 34.2857 20.6615 33.8805 21.3286 33.3656C21.469 33.2643 21.548 33.1124 21.5744 32.9436C21.5919 32.7748 21.548 32.6144 21.4339 32.4794C21.311 32.3274 21.1179 32.243 20.9161 32.243ZM18.2039 36.6659C18.2741 36.8516 18.3092 37.0542 18.3531 37.2736C18.4321 37.6619 18.5199 38.1261 18.792 38.6326C17.9494 38.5397 17.0804 38.3456 16.6064 37.8054C16.1588 37.2989 15.834 36.6912 15.6585 35.9822C15.9833 35.7965 16.2553 35.5264 16.4484 35.2057C17.3613 35.4589 17.9581 35.9569 18.2127 36.6659H18.2039ZM14.4999 33.3994C14.9914 33.3994 15.3952 33.7623 15.3952 34.2097C15.3952 34.657 14.9914 35.02 14.4999 35.02C14.0084 35.02 13.6046 34.657 13.6046 34.2097C13.6046 33.7623 14.0084 33.3994 14.4999 33.3994ZM13.3501 35.9822C13.1745 36.6912 12.8498 37.3074 12.4021 37.8054C11.9194 38.3456 11.0592 38.5313 10.2166 38.6326C10.4887 38.1261 10.5765 37.6619 10.6555 37.2736C10.6994 37.0542 10.7345 36.8516 10.8047 36.6659C11.0592 35.9485 11.6561 35.4589 12.5689 35.2057C12.7532 35.5264 13.0253 35.7881 13.3501 35.9822Z" fill="#363436"/>
<path d="M17.5193 2.17773H17.5368V2.28746H17.5895V2.30434H17.5193V2.18617V2.17773Z" fill="#231F20"/>
<path d="M17.6774 2.25363C17.6774 2.25363 17.651 2.30427 17.6335 2.30427C17.6072 2.30427 17.5896 2.28739 17.5896 2.26207C17.5896 2.23675 17.6072 2.21143 17.6335 2.21143C17.6598 2.21143 17.6774 2.22831 17.6774 2.25363ZM17.6072 2.25363C17.6072 2.25363 17.6159 2.28739 17.6335 2.28739C17.651 2.28739 17.6598 2.27051 17.6598 2.25363C17.6598 2.23675 17.6598 2.21987 17.6335 2.21987C17.6072 2.21987 17.6072 2.23675 17.6072 2.25363Z" fill="#231F20"/>
<path d="M17.6948 2.23675C17.6948 2.23675 17.6948 2.21987 17.6948 2.21143H17.7124V2.22831C17.7124 2.22831 17.7299 2.21143 17.7387 2.21143V2.22831C17.7299 2.22831 17.7212 2.22831 17.7124 2.24519V2.29583H17.6948V2.23675Z" fill="#231F20"/>
<path d="M17.7651 2.25363C17.7651 2.25363 17.7827 2.28739 17.8002 2.28739C17.809 2.28739 17.8178 2.28739 17.8266 2.28739C17.8266 2.28739 17.809 2.30427 17.8002 2.30427C17.7739 2.30427 17.7563 2.28739 17.7563 2.26207C17.7563 2.23675 17.7739 2.21143 17.8002 2.21143C17.8266 2.21143 17.8353 2.23675 17.8353 2.25363H17.7739H17.7651ZM17.8178 2.24519C17.8178 2.24519 17.8178 2.21987 17.7915 2.21987C17.7739 2.21987 17.7651 2.23675 17.7651 2.24519H17.809H17.8178Z" fill="#231F20"/>
<path d="M17.844 2.23675C17.844 2.23675 17.844 2.21987 17.844 2.21143H17.8615V2.22831C17.8615 2.22831 17.8791 2.21143 17.8879 2.21143C17.8967 2.21143 17.9142 2.21143 17.9142 2.22831C17.9142 2.22831 17.9142 2.21987 17.923 2.21987C17.923 2.21987 17.9318 2.21987 17.9405 2.21987C17.9493 2.21987 17.9669 2.21987 17.9669 2.25363V2.30427H17.9493V2.25363C17.9493 2.25363 17.9493 2.22831 17.9318 2.22831C17.923 2.22831 17.9142 2.22831 17.9142 2.24519V2.29583H17.8967V2.24519C17.8967 2.24519 17.8967 2.21987 17.8791 2.21987C17.8703 2.21987 17.8615 2.21987 17.8615 2.23675V2.28739H17.844V2.21987V2.23675Z" fill="#231F20"/>
<path d="M18.0547 2.18617C18.0547 2.18617 18.0547 2.19462 18.0459 2.19462C18.0459 2.19462 18.0371 2.19462 18.0371 2.18617C18.0371 2.18617 18.0371 2.17773 18.0459 2.17773C18.0459 2.17773 18.0547 2.17773 18.0547 2.18617ZM18.0371 2.2959V2.2115H18.0547V2.2959H18.0371Z" fill="#231F20"/>
<path d="M18.0811 2.23675C18.0811 2.23675 18.0811 2.21987 18.0811 2.21143H18.0986V2.22831C18.0986 2.22831 18.1162 2.21143 18.1337 2.21143C18.16 2.21143 18.1688 2.22831 18.1688 2.25363C18.1688 2.28739 18.1513 2.30427 18.1249 2.30427C18.1162 2.30427 18.0986 2.30427 18.0986 2.28739V2.33803H18.0811V2.24519V2.23675ZM18.0986 2.26207C18.0986 2.27051 18.1074 2.27895 18.1249 2.27895C18.1425 2.27895 18.1513 2.26207 18.1513 2.24519C18.1513 2.22831 18.1425 2.21143 18.1249 2.21143C18.1162 2.21143 18.1074 2.21143 18.0986 2.22831V2.24519V2.26207Z" fill="#231F20"/>
<path d="M18.1775 2.27899C18.1775 2.27899 18.1863 2.27899 18.195 2.27899C18.2038 2.27899 18.2126 2.27899 18.2126 2.26211C18.2126 2.24522 18.2126 2.25366 18.195 2.24522C18.1775 2.24522 18.1687 2.22834 18.1687 2.2199C18.1687 2.20302 18.1775 2.19458 18.2038 2.19458C18.2126 2.19458 18.2214 2.19458 18.2301 2.19458C18.2301 2.19458 18.2214 2.19458 18.2126 2.19458C18.2038 2.19458 18.195 2.19458 18.195 2.20302C18.195 2.20302 18.195 2.21146 18.2126 2.2199C18.2301 2.2199 18.2389 2.23678 18.2389 2.24522C18.2389 2.26211 18.2301 2.27055 18.2038 2.27055C18.195 2.27055 18.1863 2.27055 18.1775 2.27055V2.27899Z" fill="#231F20"/>
<path d="M18.3356 2.27065C18.3356 2.27065 18.3356 2.28753 18.3356 2.29597H18.318V2.27909C18.318 2.27909 18.3005 2.29597 18.2917 2.29597C18.2741 2.29597 18.2566 2.29597 18.2566 2.25377V2.20312H18.2741V2.25377C18.2741 2.25377 18.2741 2.27909 18.2917 2.27909C18.3005 2.27909 18.3093 2.27909 18.318 2.26221V2.21157H18.3356V2.27909V2.27065Z" fill="#231F20"/>
<path d="M18.353 2.23675C18.353 2.23675 18.353 2.21987 18.353 2.21143H18.3706V2.22831C18.3706 2.22831 18.3794 2.21143 18.3969 2.21143C18.4057 2.21143 18.4145 2.21143 18.4232 2.22831C18.4232 2.22831 18.4232 2.21987 18.432 2.21987C18.432 2.21987 18.4408 2.21987 18.4496 2.21987C18.4584 2.21987 18.4759 2.21987 18.4759 2.25363V2.30427H18.4584V2.25363C18.4584 2.25363 18.4584 2.22831 18.4408 2.22831C18.432 2.22831 18.4232 2.22831 18.4232 2.24519V2.29583H18.4057V2.24519C18.4057 2.24519 18.4057 2.21987 18.3881 2.21987C18.3794 2.21987 18.3706 2.21987 18.3706 2.23675V2.28739H18.353V2.21987V2.23675Z" fill="#231F20"/>
</g>
<defs>
<clipPath id="clip0_31_24">
<rect width="29" height="40" fill="white"/>
</clipPath>
</defs>
</svg>
